PathFileType	4	(X/Y/Z)	C:/Users/opensim2020/Desktop/walking_exp_matlab/subject01_walking13_straight_02.trc	
DataRate	CameraRate	NumFrames	NumMarkers	Units	OrigDataRate	OrigDataStartFrame	OrigNumFrames	
100.00	100.00	5	42	mm	100.00	1239	172	
Frame#	Time	LFHD			RFHD			LBHD			RBHD			C7			T10			CLAV			STRN			RBAK			LSHO			LUPA			LELB			LFRM			LWRA			LWRB			LFIN			RSHO			RUPA			RELB			RFRM			RWRA			RWRB			RFIN			LASI			RASI			LPSI			RPSI			LTHI			LKNE			LTIB			LANK			LHEE			LTOE			RTHI			RKNE			RTIB			RANK			RHEE			RTOE			*39			*40			*41			
		X1	Y1	Z1	X2	Y2	Z2	X3	Y3	Z3	X4	Y4	Z4	X5	Y5	Z5	X6	Y6	Z6	X7	Y7	Z7	X8	Y8	Z8	X9	Y9	Z9	X10	Y10	Z10	X11	Y11	Z11	X12	Y12	Z12	X13	Y13	Z13	X14	Y14	Z14	X15	Y15	Z15	X16	Y16	Z16	X17	Y17	Z17	X18	Y18	Z18	X19	Y19	Z19	X20	Y20	Z20	X21	Y21	Z21	X22	Y22	Z22	X23	Y23	Z23	X24	Y24	Z24	X25	Y25	Z25	X26	Y26	Z26	X27	Y27	Z27	X28	Y28	Z28	X29	Y29	Z29	X30	Y30	Z30	X31	Y31	Z31	X32	Y32	Z32	X33	Y33	Z33	X34	Y34	Z34	X35	Y35	Z35	X36	Y36	Z36	X37	Y37	Z37	X38	Y38	Z38	X39	Y39	Z39	X40	Y40	Z40	X41	Y41	Z41	X42	Y42	Z42	

151	1.500	1499.13818	-673.12286	1641.89734	1385.40942	-664.74146	1637.87207	1516.99500	-553.70099	1613.21863	1396.53223	-541.80829	1608.82507	1481.48389	-485.54651	1407.66772	1478.71362	-466.21091	1108.78528	1474.17798	-631.56152	1343.11230	1487.38110	-684.07776	1194.41797	1414.82886	-439.11765	1202.43494	1637.00281	-573.56879	1378.92371	1740.24902	-551.06189	1208.27991	1777.12500	-562.09558	1060.52844	1793.63293	-669.23810	1007.12115	1763.26172	-802.15234	985.18085	1792.89417	-772.11829	943.42902	1804.40393	-853.19189	937.63635	1325.05835	-558.23981	1360.95129	1239.49487	-472.94196	1166.47058	1236.55835	-456.32401	1045.53552	1204.05603	-452.02570	927.03339	1215.71985	-500.40872	794.17505	1182.39490	-455.14346	805.87402	1172.62109	-478.49039	726.07477	1598.08911	-647.50323	911.95154	1384.87939	-670.17596	918.73230	1528.04626	-466.83984	917.87921	1382.47717	-484.49191	920.68555	1666.70532	-580.76550	578.37836	1664.67224	-550.66510	445.63153	1669.89478	-397.04889	339.36453	1622.01465	-230.38997	195.10118	1569.32861	-194.43987	223.11624	1591.74915	-250.79291	48.16439	1340.72668	-706.07239	592.29871	1382.22729	-752.82092	443.44348	1382.61707	-717.82898	268.33041	1444.41199	-704.71887	68.87310	1495.39587	-655.98615	32.29990	1446.86389	-845.36115	31.62570	1406.82471	-661.82678	1673.94104	-3102.01978	1973.18701	1023.53973	-3140.72632	2012.50818	1022.14423 
152	1.510	1496.27661	-685.63904	1642.76794	1382.64758	-676.51898	1638.09045	1515.00684	-566.29486	1614.29810	1394.65588	-553.72028	1609.22827	1480.43811	-497.77252	1408.89478	1477.85547	-478.14294	1109.83606	1473.04150	-643.49902	1343.88379	1486.32153	-695.87610	1195.15393	1413.78711	-450.86545	1203.55627	1635.96533	-585.82074	1379.90955	1738.81482	-562.12695	1208.99524	1774.52661	-570.95862	1060.86377	1791.31360	-676.98975	1005.02350	1761.57568	-809.62860	980.14404	1790.67151	-778.29132	938.88263	1802.47095	-859.19141	930.62738	1323.93884	-570.40009	1361.88879	1238.54639	-486.60626	1166.41541	1235.72095	-471.05969	1045.45093	1203.56885	-467.96005	926.76025	1215.48853	-518.01569	794.47253	1181.91003	-472.43546	805.65924	1172.59741	-496.54321	726.04327	1596.72046	-660.15082	913.13947	1382.97266	-681.76593	920.22052	1527.20825	-479.34311	918.02246	1381.60620	-495.93326	921.30035	1666.54529	-601.39465	578.11639	1665.39417	-575.07422	444.71347	1672.49878	-421.55029	339.16153	1622.63831	-250.84772	201.10374	1568.78906	-215.23032	228.45094	1596.28113	-269.68878	52.82475	1339.86633	-713.10284	592.04260	1380.99622	-759.07312	442.97046	1382.50244	-721.41528	268.64032	1444.47205	-705.00049	69.21525	1495.48181	-656.00641	32.53400	1446.96399	-845.55792	31.67715	1403.57690	-673.35382	1674.19153	-3101.88403	1973.10742	1023.61273	-3140.72852	2012.46460	1021.96112 
153	1.520	1493.52881	-698.25354	1643.67651	1379.95227	-688.52057	1638.40466	1513.04871	-578.96027	1615.53394	1392.80261	-565.67157	1609.83228	1479.39978	-509.72910	1410.05957	1476.92822	-490.07440	1111.03235	1472.08032	-655.34265	1344.88208	1485.40393	-707.54742	1196.08374	1412.62329	-462.35788	1204.94214	1634.98254	-597.86682	1381.07117	1737.52710	-573.09894	1209.92249	1771.76660	-579.66663	1061.19580	1788.92407	-684.36652	1002.66724	1759.84863	-816.67419	974.72821	1788.33789	-784.00488	934.01733	1800.42456	-864.56506	923.22986	1323.12634	-582.08154	1362.85010	1237.64929	-500.22238	1166.54492	1235.13672	-485.57959	1045.50720	1203.16858	-483.90454	926.62323	1215.49927	-535.69604	795.09363	1181.84863	-490.18878	805.55347	1172.46716	-515.18970	726.32373	1595.57751	-672.49231	914.57526	1381.18079	-693.14056	921.53986	1526.36328	-491.50693	918.24170	1380.80542	-507.24994	921.98804	1666.37476	-622.02802	578.29657	1665.91333	-599.41174	444.47144	1674.34033	-445.72949	339.67892	1622.75562	-272.13080	206.39931	1567.22717	-237.27951	232.25102	1601.71277	-291.33054	57.33659	1339.11755	-718.98901	591.41510	1380.04248	-764.61737	442.29791	1381.74731	-724.27539	268.20184	1444.58533	-705.39111	69.47004	1495.42883	-656.09827	32.81637	1446.97754	-845.67816	31.40846	1400.47864	-685.35040	1674.60413	-3101.97437	1973.09338	1023.91376	-3140.75928	2012.56750	1022.06378 
154	1.530	1490.93604	-710.83496	1644.59241	1377.42737	-700.31622	1638.76575	1511.31360	-591.62286	1616.94849	1391.15100	-577.55554	1610.73206	1478.50354	-521.46436	1411.15247	1475.99207	-501.82187	1112.23499	1471.17322	-666.98230	1345.93750	1484.52698	-719.09052	1197.09607	1411.30286	-473.88614	1206.37610	1634.00525	-609.82098	1382.33716	1736.38647	-583.91718	1211.05298	1768.94983	-588.21033	1061.71240	1786.53369	-691.37152	1000.15326	1758.13367	-823.28241	968.99561	1785.95190	-789.13501	928.90417	1798.29919	-869.40460	915.44397	1322.25000	-593.91168	1364.07837	1236.55432	-513.59021	1167.11621	1234.51978	-499.82224	1045.84131	1202.80383	-499.95187	926.76611	1215.75867	-553.38580	795.81616	1181.58020	-508.18008	805.85114	1172.46033	-534.57349	727.06763	1594.60413	-684.72174	916.10675	1379.55371	-704.11279	922.60101	1525.51843	-503.52203	918.53943	1379.80591	-518.57965	922.71228	1666.10388	-642.84064	579.08887	1666.26575	-623.61639	445.04575	1675.48816	-469.88666	340.88019	1622.36389	-295.18958	210.60333	1565.40356	-260.54236	234.68109	1607.04456	-315.21414	61.20929	1338.24646	-724.63770	590.82318	1378.93958	-769.73535	441.37009	1381.01880	-727.10602	267.76324	1444.25208	-706.15576	69.12469	1495.59778	-656.30243	33.42670	1447.05981	-845.80792	31.29991	1397.70313	-697.71552	1675.10913	-3101.82153	1973.11548	1023.58838	-3140.56128	2012.58008	1022.18237 
155	1.540	1488.48218	-723.48724	1645.45093	1375.03381	-712.42670	1639.26062	1509.67139	-604.20929	1618.43469	1389.58252	-589.49109	1611.85425	1477.70117	-533.05194	1412.33948	1475.10022	-513.42975	1113.47864	1470.40674	-678.58203	1347.13159	1483.70166	-730.58777	1198.16797	1410.14355	-485.23608	1207.87073	1633.14087	-621.58673	1383.67737	1735.24390	-594.52631	1212.35107	1766.17419	-596.62592	1062.21765	1784.24316	-698.01721	997.57501	1756.36414	-829.44458	962.95703	1783.48950	-793.78101	923.66748	1796.00110	-873.62427	907.34741	1321.66077	-605.23413	1365.32446	1235.52795	-526.77936	1167.94873	1233.91418	-513.74133	1046.26782	1202.38403	-516.04169	927.00067	1215.62476	-572.27136	797.32166	1181.60339	-526.68878	806.05280	1172.54480	-554.58624	728.00006	1593.48853	-696.83087	917.59442	1377.90173	-715.07050	923.70007	1524.70935	-515.32526	919.12262	1378.97644	-529.71417	923.77179	1665.68982	-663.74731	580.67383	1666.38843	-647.82544	446.52631	1675.82202	-493.50543	342.05768	1621.80566	-319.80902	213.34610	1563.73083	-284.64108	235.89462	1612.03528	-341.00711	64.15424	1337.54590	-730.12817	589.68243	1377.84021	-774.45667	440.13373	1380.51208	-729.69452	267.50085	1444.39734	-706.33826	68.98310	1495.23987	-656.11060	33.13180	1446.96912	-845.94458	31.22435	1395.23352	-710.22150	1675.88574	-3102.04370	1973.03479	1024.07593	-3140.70093	2012.49719	1022.02496 
